<svg width="146" height="146" viewBox="0 0 146 146" fill="none" xmlns="http://www.w3.org/2000/svg">
<path d="M73 141C86.5486 141.024 99.7923 136.979 111.016 129.39C121.951 122.009 130.511 111.614 135.658 99.467C140.068 89.0475 141.805 77.691 140.71 66.4296C139.615 55.1682 135.724 44.3589 129.389 34.984C122.008 24.0492 111.613 15.4895 99.466 10.342C89.0465 5.93167 77.69 4.19502 66.4286 5.28984C55.1672 6.38467 44.3579 10.2763 34.983 16.611C24.0481 23.9925 15.4885 34.3866 10.341 46.534C5.93065 56.9535 4.19397 68.31 5.2888 79.5714C6.38364 90.8328 10.2753 101.642 16.61 111.017C23.9916 121.952 34.3857 130.511 46.533 135.658C54.9061 139.201 63.9081 141.018 73 141ZM73 146C58.562 146 44.4482 141.719 32.4434 133.697C20.4386 125.676 11.082 114.275 5.55679 100.936C0.031601 87.5969 -1.41405 72.919 1.40268 58.7584C4.21941 44.5978 11.172 31.5905 21.3812 21.3812C31.5904 11.172 44.5978 4.21944 58.7584 1.40271C72.919 -1.414 87.5969 0.0316315 100.936 5.55682C114.275 11.082 125.676 20.4386 133.697 32.4434C141.719 44.4482 146 58.562 146 73C146 92.3608 138.309 110.929 124.619 124.619C110.929 138.309 92.3608 146 73 146V146Z" fill="#84BF31"/>
</svg>
