<svg width="76" height="76" viewBox="0 0 76 76" fill="none" xmlns="http://www.w3.org/2000/svg">
<path d="M38 0C17.0081 0 0 17.0081 0 38C0 58.9919 17.0081 76 38 76C58.9919 76 76 58.9919 76 38C76 17.0081 58.9919 0 38 0ZM38 71.0968C19.8121 71.0968 4.90323 56.3718 4.90323 38C4.90323 19.8121 19.6282 4.90323 38 4.90323C56.1879 4.90323 71.0968 19.6282 71.0968 38C71.0968 56.1879 56.3718 71.0968 38 71.0968ZM52.5258 27.3815L41.9073 38L52.5258 48.6185C53.246 49.3387 53.246 50.5032 52.5258 51.2234L51.2234 52.5258C50.5032 53.246 49.3387 53.246 48.6185 52.5258L38 41.9073L27.3815 52.5258C26.6613 53.246 25.4968 53.246 24.7766 52.5258L23.4742 51.2234C22.754 50.5032 22.754 49.3387 23.4742 48.6185L34.0927 38L23.4742 27.3815C22.754 26.6613 22.754 25.4968 23.4742 24.7766L24.7766 23.4742C25.4968 22.754 26.6613 22.754 27.3815 23.4742L38 34.0927L48.6185 23.4742C49.3387 22.754 50.5032 22.754 51.2234 23.4742L52.5258 24.7766C53.2306 25.4968 53.2306 26.6613 52.5258 27.3815Z" fill="#84BF31"/>
</svg>
