<svg width="37" height="68" viewBox="0 0 37 68" fill="none" xmlns="http://www.w3.org/2000/svg">
<path d="M0.623184 33.9952C0.622402 33.3426 0.877693 32.7157 1.33419 32.2492L31.7652 1.06525C32.2283 0.590826 32.8609 0.319772 33.5238 0.311709C34.1867 0.303645 34.8257 0.559231 35.3002 1.02225C35.7746 1.48534 36.0457 2.11792 36.0537 2.78085C36.0618 3.44377 35.8062 4.08275 35.3432 4.55725L6.63718 33.9732L36.0842 63.4212C36.3164 63.6534 36.5006 63.929 36.6263 64.2324C36.752 64.5357 36.8167 64.8609 36.8167 65.1892C36.8167 65.5176 36.752 65.8427 36.6263 66.1461C36.5006 66.4495 36.3164 66.7251 36.0842 66.9572C35.852 67.1895 35.5764 67.3737 35.273 67.4993C34.9697 67.625 34.6445 67.6897 34.3162 67.6897C33.9878 67.6897 33.6627 67.625 33.3593 67.4993C33.056 67.3737 32.7803 67.1895 32.5482 66.9572L1.35519 35.7632C1.12275 35.5313 0.938416 35.2557 0.812798 34.9523C0.68718 34.6489 0.622742 34.3236 0.623184 33.9952Z" fill="#84BF31"/>
</svg>
