<svg width="284" height="394" viewBox="0 0 284 394" fill="none" xmlns="http://www.w3.org/2000/svg">
<path d="M246.22 167.557V105.157C246.301 91.1748 243.58 77.3184 238.219 64.4064C232.857 51.4945 224.964 39.7891 215.005 29.982C205.597 20.4842 194.403 12.9448 182.069 7.79885C169.735 2.65291 156.505 0.00230815 143.141 0L141.806 0C84.2991 0.084 37.5585 47.193 37.5585 105.161V167.561C15.858 170.15 0 188.361 0 210.411V350.566C0 374.371 19.0296 394 42.8175 394H241.045C264.832 394 283.863 374.371 283.863 350.566V210.406C283.779 188.438 267.921 170.146 246.22 167.557ZM54.1659 105.157H54.2498C54.2498 56.377 93.562 16.451 141.883 16.451H141.967C153.336 16.4182 164.599 18.6297 175.112 22.9588C185.626 27.288 195.183 33.6498 203.236 41.68C211.613 49.9778 218.248 59.8687 222.748 70.7707C227.249 81.6727 229.526 93.3655 229.444 105.161V167.64H211.082V105.161C211.159 95.7765 209.36 86.4713 205.791 77.7929C202.221 69.1145 196.954 61.238 190.298 54.627C177.621 41.9165 160.418 34.7656 142.473 34.747H141.973C103.579 34.747 72.526 66.32 72.526 105.077V167.64H54.1679V105.161L54.1659 105.157ZM194.469 105.157V167.64H89.3073V105.161C89.3073 75.592 112.844 51.536 142.056 51.536H142.556C156.117 51.559 169.115 56.9664 178.695 66.571C183.757 71.6306 187.759 77.6496 190.468 84.2757C193.176 90.9018 194.538 98.0021 194.471 105.161L194.469 105.157ZM267.914 350.812C267.912 357.834 265.123 364.567 260.162 369.532C255.201 374.498 248.472 377.288 241.456 377.29H43.1513C36.1348 377.288 29.4064 374.498 24.445 369.532C19.4837 364.567 16.6954 357.834 16.6933 350.812V210.824C16.6954 203.802 19.4837 197.069 24.445 192.104C29.4064 187.138 36.1348 184.348 43.1513 184.346H241.463C248.479 184.348 255.208 187.138 260.169 192.104C265.13 197.069 267.919 203.802 267.921 210.824V350.816L267.914 350.812Z" fill="#84BF31"/>
<path d="M170.768 275.641C169.323 270.604 166.589 266.032 162.838 262.377C159.086 258.722 154.446 256.109 149.376 254.798C144.306 253.487 138.983 253.523 133.931 254.902C128.879 256.281 124.275 258.955 120.572 262.66C116.87 266.366 114.197 270.974 112.819 276.029C111.442 281.085 111.406 286.413 112.716 291.486C114.026 296.56 116.636 301.203 120.289 304.958C123.942 308.713 128.51 311.448 133.543 312.895V336.283C133.543 338.498 134.422 340.623 135.987 342.189C137.553 343.756 139.676 344.636 141.889 344.636C144.103 344.636 146.226 343.756 147.791 342.189C149.357 340.623 150.236 338.498 150.236 336.283V312.895C154.032 311.804 157.576 309.974 160.664 307.509C163.752 305.045 166.323 301.995 168.23 298.534C170.138 295.073 171.344 291.269 171.78 287.341C172.215 283.412 171.872 279.436 170.768 275.641ZM141.89 297.358C139.233 297.358 136.634 296.57 134.424 295.092C132.214 293.615 130.491 291.515 129.474 289.057C128.457 286.6 128.19 283.896 128.709 281.287C129.227 278.678 130.507 276.282 132.386 274.401C134.265 272.52 136.66 271.239 139.267 270.72C141.873 270.201 144.576 270.468 147.031 271.486C149.487 272.504 151.585 274.227 153.062 276.439C154.538 278.651 155.326 281.251 155.326 283.911C155.327 285.677 154.981 287.426 154.306 289.058C153.631 290.69 152.641 292.173 151.393 293.422C150.145 294.671 148.664 295.662 147.033 296.337C145.402 297.013 143.654 297.36 141.889 297.359L141.89 297.358Z" fill="#84BF31"/>
</svg>
