<svg width="37" height="68" viewBox="0 0 37 68" fill="none" xmlns="http://www.w3.org/2000/svg">
<path d="M36.3768 33.9952C36.3776 33.3426 36.1223 32.7157 35.6658 32.2492L5.23482 1.06525C4.77172 0.590826 4.13915 0.319772 3.47622 0.311709C2.81329 0.303645 2.17431 0.559231 1.69982 1.02225C1.22539 1.48534 0.954337 2.11792 0.946273 2.78085C0.938209 3.44377 1.1938 4.08275 1.65682 4.55725L30.3628 33.9732L0.915816 63.4212C0.683599 63.6534 0.499392 63.929 0.373714 64.2324C0.248036 64.5357 0.18335 64.8609 0.18335 65.1892C0.18335 65.5176 0.248036 65.8427 0.373714 66.1461C0.499392 66.4495 0.683599 66.7251 0.915816 66.9572C1.14797 67.1895 1.4236 67.3737 1.72695 67.4993C2.03031 67.625 2.35546 67.6897 2.68382 67.6897C3.01218 67.6897 3.33732 67.625 3.64068 67.4993C3.94403 67.3737 4.21966 67.1895 4.45182 66.9572L35.6448 35.7632C35.8773 35.5313 36.0616 35.2557 36.1872 34.9523C36.3128 34.6489 36.3773 34.3236 36.3768 33.9952Z" fill="#84BF31"/>
</svg>
