<svg width="97" height="98" viewBox="0 0 97 98" fill="none" xmlns="http://www.w3.org/2000/svg">
<path d="M48.5 0.5625C21.7077 0.5625 0 22.2422 0 49C0 75.7578 21.7077 97.4375 48.5 97.4375C75.2923 97.4375 97 75.7578 97 49C97 22.2422 75.2923 0.5625 48.5 0.5625ZM86.2831 30.25H70.149C68.3889 21.5781 65.4359 14.1953 61.7006 8.94141C72.4567 12.4961 81.2962 20.25 86.2831 30.25ZM65.7097 49C65.7097 53.4727 65.3968 57.6328 64.8688 61.5H32.1313C31.6032 57.6328 31.2903 53.4727 31.2903 49C31.2903 44.5273 31.6032 40.3672 32.1313 36.5H64.8688C65.3968 40.3672 65.7097 44.5273 65.7097 49ZM48.5 6.8125C53.7607 6.8125 60.5077 15.4258 63.7736 30.25H33.2264C36.4923 15.4258 43.2393 6.8125 48.5 6.8125ZM35.2994 8.94141C31.5837 14.1758 28.6111 21.5586 26.851 30.25H10.7169C15.7038 20.25 24.5433 12.4961 35.2994 8.94141ZM6.25806 49C6.25806 44.6445 6.92298 40.4453 8.15504 36.5H25.8536C25.3452 40.5039 25.0323 44.6641 25.0323 49C25.0323 53.3359 25.3256 57.4961 25.8536 61.5H8.15504C6.92298 57.5547 6.25806 53.3555 6.25806 49ZM10.7169 67.75H26.851C28.6111 76.4219 31.5641 83.8047 35.2994 89.0586C24.5433 85.5039 15.7038 77.75 10.7169 67.75ZM48.5 91.1875C43.2393 91.1875 36.4923 82.5742 33.2264 67.75H63.7736C60.5077 82.5742 53.7607 91.1875 48.5 91.1875ZM61.7006 89.0586C65.4163 83.8242 68.3889 76.4414 70.149 67.75H86.2831C81.2962 77.75 72.4567 85.5039 61.7006 89.0586ZM71.1464 61.5C71.6548 57.4961 71.9677 53.3359 71.9677 49C71.9677 44.6641 71.6744 40.5039 71.1464 36.5H88.845C90.077 40.4453 90.7419 44.6445 90.7419 49C90.7419 53.3555 90.077 57.5547 88.845 61.5H71.1464Z" fill="white"/>
</svg>
